<?xml version="1.0" standalone="no"?>
 <!DOCTYPE svg PUBLIC "-//W3C//DTD SVG 1.1//EN" 
 "http://www.w3.org/Graphics/SVG/1.1/DTD/svg11.dtd"> 
<svg xmlns="http://www.w3.org/2000/svg" version="1.1" 
    width="29.7002cm" height="21.0007cm" viewBox="0 0 116929 82679 ">
<title>SVG Picture created as fanboost.svg date 2014/08/26 22:15:16 </title>
  <desc>Picture generated by Eeschema-SVG </desc>
<g style="fill:#000000; fill-opacity:1;stroke:#000000; stroke-opacity:1;
stroke-linecap:round; stroke-linejoin:round; "
 transform="translate(0 0) scale(1 1)">
</g>
<g style="fill:#9F0000; fill-opacity:0.0; 
stroke:#9F0000; stroke-width:100; stroke-opacity:1; 
stroke-linecap:round; stroke-linejoin:round;">
<path d="M4000 4000
L112930 4000
L112930 78680
L4000 78680
L4000 4000
" />
<path d="M4700 4700
L112230 4700
L112230 77980
L4700 77980
L4700 4700
" />
<path d="M25780 4000
L25780 4700
" />
<path d="M15030 4550
L14750 4550
" />
<path d="M14890 4550
L14890 4050
L14840 4120
L14790 4170
L14750 4200
" />
<path d="M25780 78680
L25780 77980
" />
<path d="M15030 78530
L14750 78530
" />
<path d="M14890 78530
L14890 78030
L14840 78100
L14790 78150
L14750 78180
" />
<path d="M47560 4000
L47560 4700
" />
<path d="M36530 4100
L36550 4080
L36600 4050
L36720 4050
L36760 4080
L36790 4100
L36810 4150
L36810 4200
L36790 4270
L36500 4550
L36810 4550
" />
<path d="M47560 78680
L47560 77980
" />
<path d="M36530 78080
L36550 78060
L36600 78030
L36720 78030
L36760 78060
L36790 78080
L36810 78130
L36810 78180
L36790 78250
L36500 78530
L36810 78530
" />
<path d="M69340 4000
L69340 4700
" />
<path d="M58280 4050
L58590 4050
L58420 4240
L58500 4240
L58540 4270
L58570 4290
L58590 4340
L58590 4460
L58570 4500
L58540 4530
L58500 4550
L58350 4550
L58310 4530
L58280 4500
" />
<path d="M69340 78680
L69340 77980
" />
<path d="M58280 78030
L58590 78030
L58420 78220
L58500 78220
L58540 78250
L58570 78270
L58590 78320
L58590 78440
L58570 78480
L58540 78510
L58500 78530
L58350 78530
L58310 78510
L58280 78480
" />
<path d="M91120 4000
L91120 4700
" />
<path d="M80320 4220
L80320 4550
" />
<path d="M80200 4030
L80090 4390
L80390 4390
" />
<path d="M91120 78680
L91120 77980
" />
<path d="M80320 78200
L80320 78530
" />
<path d="M80200 78010
L80090 78370
L80390 78370
" />
<path d="M102130 4050
L101890 4050
L101870 4290
L101890 4270
L101940 4240
L102060 4240
L102100 4270
L102130 4290
L102150 4340
L102150 4460
L102130 4500
L102100 4530
L102060 4550
L101940 4550
L101890 4530
L101870 4500
" />
<path d="M102130 78030
L101890 78030
L101870 78270
L101890 78250
L101940 78220
L102060 78220
L102100 78250
L102130 78270
L102150 78320
L102150 78440
L102130 78480
L102100 78510
L102060 78530
L101940 78530
L101890 78510
L101870 78480
" />
<path d="M4000 28890
L4700 28890
" />
<path d="M4240 16510
L4470 16510
" />
<path d="M4190 16650
L4350 16150
L4520 16650
" />
<path d="M112930 28890
L112230 28890
" />
<path d="M112470 16510
L112700 16510
" />
<path d="M112420 16650
L112580 16150
L112750 16650
" />
<path d="M4000 53780
L4700 53780
" />
<path d="M4390 41280
L4460 41300
L4480 41330
L4500 41380
L4500 41450
L4480 41490
L4460 41520
L4410 41540
L4220 41540
L4220 41040
L4390 41040
L4430 41070
L4460 41090
L4480 41140
L4480 41190
L4460 41230
L4430 41260
L4390 41280
L4220 41280
" />
<path d="M112930 53780
L112230 53780
" />
<path d="M112620 41280
L112690 41300
L112710 41330
L112730 41380
L112730 41450
L112710 41490
L112690 41520
L112640 41540
L112450 41540
L112450 41040
L112620 41040
L112660 41070
L112690 41090
L112710 41140
L112710 41190
L112690 41230
L112660 41260
L112620 41280
L112450 41280
" />
<path d="M4500 66380
L4480 66410
L4410 66430
L4360 66430
L4290 66410
L4240 66360
L4220 66310
L4200 66220
L4200 66150
L4220 66050
L4240 66000
L4290 65960
L4360 65930
L4410 65930
L4480 65960
L4500 65980
" />
<path d="M112730 66380
L112710 66410
L112640 66430
L112590 66430
L112520 66410
L112470 66360
L112450 66310
L112430 66220
L112430 66150
L112450 66050
L112470 66000
L112520 65960
L112590 65930
L112640 65930
L112710 65960
L112730 65980
" />
<path d="M79380 76420
L79450 75820
L79600 75820
L79680 75850
L79730 75910
L79750 75970
L79770 76080
L79760 76170
L79720 76280
L79680 76340
L79610 76390
L79530 76420
L79380 76420
" />
<path d="M80240 76420
L80280 76110
L80250 76050
L80200 76020
L80090 76020
L80020 76050
" />
<path d="M80240 76390
L80180 76420
L80040 76420
L79980 76390
L79960 76340
L79970 76280
L80000 76220
L80070 76190
L80210 76190
L80270 76170
" />
<path d="M80490 76020
L80720 76020
" />
<path d="M80590 75820
L80530 76340
L80550 76390
L80610 76420
L80670 76420
" />
<path d="M81090 76390
L81030 76420
L80920 76420
L80860 76390
L80840 76340
L80870 76110
L80900 76050
L80970 76020
L81080 76020
L81130 76050
L81160 76110
L81150 76170
L80850 76220
" />
<path d="M81370 76370
L81400 76390
L81370 76420
L81340 76390
L81370 76370
L81370 76420
" />
<path d="M81410 76050
L81440 76080
L81410 76110
L81380 76080
L81410 76050
L81410 76110
" />
<path d="M82160 75880
L82190 75850
L82250 75820
L82390 75820
L82450 75850
L82480 75880
L82500 75940
L82490 75990
L82450 76080
L82070 76420
L82440 76420
" />
<path d="M82710 75820
L83110 75820
L82780 76420
" />
<path d="M83980 76420
L84020 76110
L83990 76050
L83940 76020
L83830 76020
L83760 76050
" />
<path d="M83980 76390
L83920 76420
L83780 76420
L83720 76390
L83700 76340
L83710 76280
L83740 76220
L83810 76190
L83950 76190
L84010 76170
" />
<path d="M84570 76020
L84520 76420
" />
<path d="M84310 76020
L84270 76340
L84290 76390
L84350 76420
L84430 76420
L84490 76390
L84520 76370
" />
<path d="M85110 76020
L85050 76510
L85010 76570
L84980 76590
L84920 76620
L84830 76620
L84780 76590
" />
<path d="M85060 76390
L85000 76420
L84890 76420
L84830 76390
L84800 76370
L84780 76310
L84800 76140
L84840 76080
L84870 76050
L84940 76020
L85050 76020
L85100 76050
" />
<path d="M85840 75880
L85870 75850
L85930 75820
L86070 75820
L86130 75850
L86160 75880
L86180 75940
L86170 75990
L86130 76080
L85750 76420
L86120 76420
" />
<path d="M86560 75820
L86610 75820
L86670 75850
L86700 75880
L86720 75940
L86730 76050
L86720 76190
L86670 76310
L86630 76370
L86600 76390
L86540 76420
L86490 76420
L86430 76390
L86400 76370
L86380 76310
L86370 76190
L86380 76050
L86430 75940
L86470 75880
L86500 75850
L86560 75820
" />
<path d="M87260 76420
L86910 76420
" />
<path d="M87090 76420
L87160 75820
L87090 75910
L87020 75970
L86960 75990
" />
<path d="M87820 76020
L87770 76420
" />
<path d="M87710 75790
L87500 76220
L87880 76220
" />
<path d="M70970 77620
L70970 77020
" />
<path d="M71320 77620
L71060 77280
" />
<path d="M71320 77020
L70970 77370
" />
<path d="M71570 77620
L71570 77220
" />
<path d="M71570 77020
L71540 77050
L71570 77080
L71600 77050
L71570 77020
L71570 77080
" />
<path d="M72210 77570
L72180 77590
L72090 77620
L72030 77620
L71950 77590
L71890 77540
L71860 77480
L71830 77370
L71830 77280
L71860 77170
L71890 77110
L71950 77050
L72030 77020
L72090 77020
L72180 77050
L72210 77080
" />
<path d="M72720 77620
L72720 77310
L72690 77250
L72630 77220
L72520 77220
L72460 77250
" />
<path d="M72720 77590
L72660 77620
L72520 77620
L72460 77590
L72430 77540
L72430 77480
L72460 77420
L72520 77390
L72660 77390
L72720 77370
" />
<path d="M73260 77620
L73260 77020
" />
<path d="M73260 77590
L73200 77620
L73090 77620
L73030 77590
L73000 77570
L72970 77510
L72970 77340
L73000 77280
L73030 77250
L73090 77220
L73200 77220
L73260 77250
" />
<path d="M74000 77310
L74200 77310
" />
<path d="M74290 77620
L74000 77620
L74000 77020
L74290 77020
" />
<path d="M74540 77570
L74570 77590
L74540 77620
L74510 77590
L74540 77570
L74540 77620
" />
<path d="M74830 77620
L74830 77020
L74980 77020
L75060 77050
L75120 77110
L75150 77170
L75180 77280
L75180 77370
L75150 77480
L75120 77540
L75060 77590
L74980 77620
L74830 77620
" />
<path d="M75430 77570
L75460 77590
L75430 77620
L75400 77590
L75430 77570
L75430 77620
" />
<path d="M75690 77450
L75980 77450
" />
<path d="M75640 77620
L75840 77020
L76040 77620
" />
<path d="M76230 77570
L76260 77590
L76230 77620
L76200 77590
L76230 77570
L76230 77620
" />
<path d="M104530 76420
L104360 76140
" />
<path d="M104180 76420
L104250 75820
L104480 75820
L104540 75850
L104570 75880
L104590 75940
L104580 76020
L104540 76080
L104510 76110
L104440 76140
L104210 76140
" />
<path d="M105010 76390
L104950 76420
L104840 76420
L104780 76390
L104760 76340
L104790 76110
L104820 76050
L104890 76020
L105000 76020
L105050 76050
L105080 76110
L105070 76170
L104770 76220
" />
<path d="M105290 76020
L105380 76420
L105570 76020
" />
<path d="M105750 76370
L105780 76390
L105750 76420
L105720 76390
L105750 76370
L105750 76420
" />
<path d="M105790 76050
L105820 76080
L105790 76110
L105760 76080
L105790 76050
L105790 76110
" />
<path d="M70940 76390
L71030 76420
L71170 76420
L71230 76390
L71260 76370
L71290 76310
L71290 76250
L71260 76190
L71230 76170
L71170 76140
L71060 76110
L71000 76080
L70970 76050
L70940 75990
L70940 75940
L70970 75880
L71000 75850
L71060 75820
L71200 75820
L71290 75850
" />
<path d="M71540 76420
L71540 76020
" />
<path d="M71540 75820
L71510 75850
L71540 75880
L71570 75850
L71540 75820
L71540 75880
" />
<path d="M71780 76020
L72090 76020
L71780 76420
L72090 76420
" />
<path d="M72550 76390
L72490 76420
L72380 76420
L72320 76390
L72290 76340
L72290 76110
L72320 76050
L72380 76020
L72490 76020
L72550 76050
L72580 76110
L72580 76170
L72290 76220
" />
<path d="M72830 76370
L72860 76390
L72830 76420
L72800 76390
L72830 76370
L72830 76420
" />
<path d="M72830 76050
L72860 76080
L72830 76110
L72800 76080
L72830 76050
L72830 76110
" />
<path d="M73550 76250
L73840 76250
" />
<path d="M73500 76420
L73700 75820
L73900 76420
" />
<path d="M74350 76020
L74350 76420
" />
<path d="M74210 75790
L74060 76220
L74440 76220
" />
<path d="M104170 77620
L104170 77020
" />
<path d="M104720 77620
L104720 77020
" />
<path d="M104720 77590
L104660 77620
L104550 77620
L104490 77590
L104460 77570
L104430 77510
L104430 77340
L104460 77280
L104490 77250
L104550 77220
L104660 77220
L104720 77250
" />
<path d="M105000 77570
L105030 77590
L105000 77620
L104970 77590
L105000 77570
L105000 77620
" />
<path d="M105000 77250
L105030 77280
L105000 77310
L104970 77280
L105000 77250
L105000 77310
" />
<path d="M106070 77620
L105720 77620
" />
<path d="M105900 77620
L105900 77020
L105840 77110
L105780 77170
L105720 77190
" />
<path d="M106750 76990
L106240 77770
" />
<path d="M107270 77620
L106920 77620
" />
<path d="M107100 77620
L107100 77020
L107040 77110
L106980 77170
L106920 77190
" />
<path d="M70970 74620
L71310 74620
" />
<path d="M71070 75220
L71140 74620
" />
<path d="M71440 75220
L71490 74820
" />
<path d="M71510 74620
L71480 74650
L71510 74680
L71540 74650
L71510 74620
L71510 74680
" />
<path d="M71700 74820
L71930 74820
" />
<path d="M71800 74620
L71740 75140
L71760 75190
L71820 75220
L71880 75220
" />
<path d="M72160 75220
L72100 75190
L72080 75140
L72140 74620
" />
<path d="M72610 75190
L72550 75220
L72440 75220
L72380 75190
L72360 75140
L72390 74910
L72420 74850
L72490 74820
L72600 74820
L72650 74850
L72680 74910
L72670 74970
L72370 75020
" />
<path d="M72890 75170
L72920 75190
L72890 75220
L72860 75190
L72890 75170
L72890 75220
" />
<path d="M72930 74850
L72960 74880
L72930 74910
L72900 74880
L72930 74850
L72930 74910
" />
<path d="M71170 72510
L70970 72510
" />
<path d="M70970 72820
L70970 72220
L71260 72220
" />
<path d="M71480 72820
L71480 72420
" />
<path d="M71480 72220
L71450 72250
L71480 72280
L71510 72250
L71480 72220
L71480 72280
" />
<path d="M71860 72820
L71800 72790
L71770 72740
L71770 72220
" />
<path d="M72310 72790
L72250 72820
L72140 72820
L72080 72790
L72050 72740
L72050 72510
L72080 72450
L72140 72420
L72250 72420
L72310 72450
L72340 72510
L72340 72570
L72050 72620
" />
<path d="M72590 72770
L72620 72790
L72590 72820
L72560 72790
L72590 72770
L72590 72820
" />
<path d="M72590 72450
L72620 72480
L72590 72510
L72560 72480
L72590 72450
L72590 72510
" />
<path d="M73260 72420
L73490 72420
" />
<path d="M73340 72820
L73340 72310
L73370 72250
L73430 72220
L73490 72220
" />
<path d="M73940 72820
L73940 72510
L73910 72450
L73850 72420
L73740 72420
L73680 72450
" />
<path d="M73940 72790
L73880 72820
L73740 72820
L73680 72790
L73650 72740
L73650 72680
L73680 72620
L73740 72590
L73880 72590
L73940 72570
" />
<path d="M74220 72420
L74220 72820
" />
<path d="M74220 72480
L74250 72450
L74310 72420
L74390 72420
L74450 72450
L74480 72510
L74480 72820
" />
<path d="M74760 72820
L74760 72220
" />
<path d="M74760 72450
L74820 72420
L74930 72420
L74990 72450
L75020 72480
L75050 72540
L75050 72710
L75020 72770
L74990 72790
L74930 72820
L74820 72820
L74760 72790
" />
<path d="M75390 72820
L75330 72790
L75300 72770
L75270 72710
L75270 72540
L75300 72480
L75330 72450
L75390 72420
L75470 72420
L75530 72450
L75560 72480
L75590 72540
L75590 72710
L75560 72770
L75530 72790
L75470 72820
L75390 72820
" />
<path d="M75930 72820
L75870 72790
L75840 72770
L75810 72710
L75810 72540
L75840 72480
L75870 72450
L75930 72420
L76010 72420
L76070 72450
L76100 72480
L76130 72540
L76130 72710
L76100 72770
L76070 72790
L76010 72820
L75930 72820
" />
<path d="M76350 72790
L76410 72820
L76530 72820
L76580 72790
L76610 72740
L76610 72710
L76580 72650
L76530 72620
L76440 72620
L76380 72590
L76350 72540
L76350 72510
L76380 72450
L76440 72420
L76530 72420
L76580 72450
" />
<path d="M76790 72420
L77020 72420
" />
<path d="M76870 72220
L76870 72740
L76900 72790
L76960 72820
L77020 72820
" />
<path d="M77210 72770
L77240 72790
L77210 72820
L77180 72790
L77210 72770
L77210 72820
" />
<path d="M77470 72790
L77530 72820
L77650 72820
L77700 72790
L77730 72740
L77730 72710
L77700 72650
L77650 72620
L77560 72620
L77500 72590
L77470 72540
L77470 72510
L77500 72450
L77560 72420
L77650 72420
L77700 72450
" />
<path d="M78250 72790
L78190 72820
L78080 72820
L78020 72790
L77990 72770
L77960 72710
L77960 72540
L77990 72480
L78020 72450
L78080 72420
L78190 72420
L78250 72450
" />
<path d="M78500 72820
L78500 72220
" />
<path d="M78760 72820
L78760 72510
L78730 72450
L78670 72420
L78590 72420
L78530 72450
L78500 72480
" />
<path d="M70940 73990
L71030 74020
L71170 74020
L71230 73990
L71260 73970
L71290 73910
L71290 73850
L71260 73790
L71230 73770
L71170 73740
L71060 73710
L71000 73680
L70970 73650
L70940 73590
L70940 73540
L70970 73480
L71000 73450
L71060 73420
L71200 73420
L71290 73450
" />
<path d="M71540 74020
L71540 73420
" />
<path d="M71800 74020
L71800 73710
L71770 73650
L71710 73620
L71630 73620
L71570 73650
L71540 73680
" />
<path d="M72310 73990
L72250 74020
L72140 74020
L72080 73990
L72050 73940
L72050 73710
L72080 73650
L72140 73620
L72250 73620
L72310 73650
L72340 73710
L72340 73770
L72050 73820
" />
<path d="M72820 73990
L72760 74020
L72650 74020
L72590 73990
L72560 73940
L72560 73710
L72590 73650
L72650 73620
L72760 73620
L72820 73650
L72850 73710
L72850 73770
L72560 73820
" />
<path d="M73020 73620
L73250 73620
" />
<path d="M73100 73420
L73100 73940
L73130 73990
L73190 74020
L73250 74020
" />
<path d="M73440 73970
L73470 73990
L73440 74020
L73410 73990
L73440 73970
L73440 74020
" />
<path d="M73440 73650
L73470 73680
L73440 73710
L73410 73680
L73440 73650
L73440 73710
" />
<path d="M74620 73390
L74110 74170
" />
<path d="M70230 71980
L70230 77980
" />
<path d="M70230 71980
L112230 71980
" />
<path d="M70230 71980
L112230 71980
" />
<path d="M70230 74380
L112230 74380
" />
<path d="M103430 75580
L103430 77980
" />
<path d="M70230 76780
L112230 76780
" />
<path d="M70230 75580
L112230 75580
" />
<path d="M76830 75580
L76830 76780
" />
</g>
<g style="fill:#9F0000; fill-opacity:0.0; 
stroke:#9F0000; stroke-width:0; stroke-opacity:1; 
stroke-linecap:round; stroke-linejoin:round;">
</g>
<g style="fill:#9F0000; fill-opacity:0.0; 
stroke:#9F0000; stroke-width:60; stroke-opacity:1; 
stroke-linecap:round; stroke-linejoin:round;">
<circle cx="17500" cy="42000" r="1500" /> 
<polyline fill="none;"
points="17500,41000
17500,40500
" /> 
<polyline fill="none;"
points="18400,41000
16610,41000
" /> 
<polyline fill="none;"
points="18000,41690
17000,41690
" /> 
<polyline fill="none;"
points="18400,42390
16610,42390
" /> 
<polyline fill="none;"
points="17500,43000
17500,43500
" /> 
<polyline fill="none;"
points="18000,43000
17000,43000
" /> 
<path d="M17500 40500
L17500 39000
" />
</g>
<g style="fill:#009F9F; fill-opacity:0.0; 
stroke:#009F9F; stroke-width:60; stroke-opacity:1; 
stroke-linecap:round; stroke-linejoin:round;">
<path d="M17160 39940
L17160 39560
" />
<path d="M17350 39750
L16970 39750
" />
</g>
<g style="fill:#9F0000; fill-opacity:0.0; 
stroke:#9F0000; stroke-width:60; stroke-opacity:1; 
stroke-linecap:round; stroke-linejoin:round;">
<path d="M18050 39610
L18050 39890
" />
<path d="M18050 39750
L17550 39750
L17620 39800
L17670 39850
L17700 39890
" />
<path d="M17500 43500
L17500 45000
" />
</g>
<g style="fill:#009F9F; fill-opacity:0.0; 
stroke:#009F9F; stroke-width:60; stroke-opacity:1; 
stroke-linecap:round; stroke-linejoin:round;">
<path d="M17160 44440
L17160 44060
" />
</g>
<g style="fill:#9F0000; fill-opacity:0.0; 
stroke:#9F0000; stroke-width:60; stroke-opacity:1; 
stroke-linecap:round; stroke-linejoin:round;">
<path d="M17600 44390
L17580 44370
L17550 44320
L17550 44200
L17580 44160
L17600 44130
L17650 44110
L17700 44110
L17770 44130
L18050 44420
L18050 44110
" />
</g>
<g style="fill:#009F9F; fill-opacity:0.0; 
stroke:#009F9F; stroke-width:60; stroke-opacity:1; 
stroke-linecap:round; stroke-linejoin:round;">
<path d="M19470 42390
L19490 42320
L19520 42300
L19570 42280
L19640 42280
L19680 42300
L19710 42320
L19730 42370
L19730 42560
L19230 42560
L19230 42390
L19260 42350
L19280 42320
L19330 42300
L19380 42300
L19420 42320
L19450 42350
L19470 42390
L19470 42560
" />
<path d="M19230 42130
L19230 41850
" />
<path d="M19730 41990
L19230 41990
" />
<path d="M19730 41420
L19730 41700
" />
<path d="M19730 41560
L19230 41560
L19300 41610
L19350 41660
L19380 41700
" />
<path d="M15380 44280
L15360 44260
L15330 44210
L15330 44090
L15360 44050
L15380 44020
L15430 44000
L15480 44000
L15550 44020
L15830 44310
L15830 44000
" />
<path d="M15780 43780
L15810 43760
L15830 43780
L15810 43800
L15780 43780
L15830 43780
" />
<path d="M15330 43590
L15330 43260
L15830 43470
" />
<path d="M15330 43130
L15830 42970
L15330 42800
" />
<path d="M15500 42320
L15500 42130
" />
<path d="M15330 42250
L15760 42250
L15810 42230
L15830 42180
L15830 42130
" />
<path d="M15830 41890
L15810 41940
L15780 41960
L15740 41980
L15590 41980
L15550 41960
L15520 41940
L15500 41890
L15500 41820
L15520 41770
L15550 41750
L15590 41720
L15740 41720
L15780 41750
L15810 41770
L15830 41820
L15830 41890
" />
<path d="M15500 40920
L15830 40920
" />
<path d="M15310 41040
L15670 41150
L15670 40850
" />
<path d="M15780 40650
L15810 40630
L15830 40650
L15810 40670
L15780 40650
L15830 40650
" />
<path d="M15380 40430
L15360 40410
L15330 40360
L15330 40240
L15360 40200
L15380 40170
L15430 40150
L15480 40150
L15550 40170
L15830 40460
L15830 40150
" />
<path d="M15330 40000
L15830 39840
L15330 39670
" />
</g>
<g style="fill:#009F9F; fill-opacity:0.0; 
stroke:#009F9F; stroke-width:0; stroke-opacity:1; 
stroke-linecap:round; stroke-linejoin:round;">
</g>
<g style="fill:#9F0000; fill-opacity:0.0; 
stroke:#9F0000; stroke-width:60; stroke-opacity:1; 
stroke-linecap:round; stroke-linejoin:round;">
<path d="M21200 41020
L21810 41020
" />
<path d="M21510 41320
L21510 40710
" />
</g>
<g style="fill:#9F0000; fill-opacity:0.0; 
stroke:#9F0000; stroke-width:150; stroke-opacity:1; 
stroke-linecap:round; stroke-linejoin:round;">
<path d="M23001.3 42504.2 A1800 1800 0.0 0 0 21006.5 42499 " />
<polyline fill="none;"
points="21000,41500
23000,41500
22500,41500
22500,41500
" /> 
</g>
<g style="fill:#9F0000; fill-opacity:0.0; 
stroke:#9F0000; stroke-width:60; stroke-opacity:1; 
stroke-linecap:round; stroke-linejoin:round;">
<path d="M22000 41500
L22000 40000
" />
<path d="M22000 42200
L22000 44000
" />
</g>
<g style="fill:#009F9F; fill-opacity:0.0; 
stroke:#009F9F; stroke-width:60; stroke-opacity:1; 
stroke-linecap:round; stroke-linejoin:round;">
<path d="M22900 41120
L22880 41150
L22810 41170
L22760 41170
L22690 41150
L22640 41100
L22620 41050
L22600 40960
L22600 40890
L22620 40790
L22640 40740
L22690 40700
L22760 40670
L22810 40670
L22880 40700
L22900 40720
" />
<path d="M23380 41170
L23100 41170
" />
<path d="M23240 41170
L23240 40670
L23190 40740
L23140 40790
L23100 40820
" />
<path d="M22830 42840
L22830 43170
" />
<path d="M22710 42650
L22600 43010
L22900 43010
" />
<path d="M23050 42670
L23380 42670
L23170 43170
" />
<path d="M23790 42840
L23790 43170
" />
<path d="M23580 42840
L23580 43100
L23600 43150
L23650 43170
L23720 43170
L23770 43150
L23790 43120
" />
<path d="M24200 42910
L24030 42910
" />
<path d="M24030 43170
L24030 42670
L24270 42670
" />
</g>
<g style="fill:#009F9F; fill-opacity:0.0; 
stroke:#009F9F; stroke-width:0; stroke-opacity:1; 
stroke-linecap:round; stroke-linejoin:round;">
</g>
<g style="fill:#9F0000; fill-opacity:0.0; 
stroke:#9F0000; stroke-width:60; stroke-opacity:1; 
stroke-linecap:round; stroke-linejoin:round;">
<path d="M75700 39020
L76310 39020
" />
<path d="M76010 39320
L76010 38710
" />
</g>
<g style="fill:#9F0000; fill-opacity:0.0; 
stroke:#9F0000; stroke-width:150; stroke-opacity:1; 
stroke-linecap:round; stroke-linejoin:round;">
<path d="M77501.3 40504.2 A1800 1800 0.0 0 0 75506.5 40499 " />
<polyline fill="none;"
points="75500,39500
77500,39500
77000,39500
77000,39500
" /> 
</g>
<g style="fill:#9F0000; fill-opacity:0.0; 
stroke:#9F0000; stroke-width:60; stroke-opacity:1; 
stroke-linecap:round; stroke-linejoin:round;">
<path d="M76500 39500
L76500 38000
" />
<path d="M76500 40200
L76500 42000
" />
</g>
<g style="fill:#009F9F; fill-opacity:0.0; 
stroke:#009F9F; stroke-width:60; stroke-opacity:1; 
stroke-linecap:round; stroke-linejoin:round;">
<path d="M77400 39120
L77380 39150
L77310 39170
L77260 39170
L77190 39150
L77140 39100
L77120 39050
L77100 38960
L77100 38890
L77120 38790
L77140 38740
L77190 38700
L77260 38670
L77310 38670
L77380 38700
L77400 38720
" />
<path d="M77570 38670
L77880 38670
L77710 38860
L77790 38860
L77830 38890
L77860 38910
L77880 38960
L77880 39080
L77860 39120
L77830 39150
L77790 39170
L77640 39170
L77600 39150
L77570 39120
" />
<path d="M77380 41170
L77100 41170
" />
<path d="M77240 41170
L77240 40670
L77190 40740
L77140 40790
L77100 40820
" />
<path d="M77690 40670
L77740 40670
L77790 40700
L77810 40720
L77840 40770
L77860 40860
L77860 40980
L77840 41080
L77810 41120
L77790 41150
L77740 41170
L77690 41170
L77650 41150
L77620 41120
L77600 41080
L77580 40980
L77580 40860
L77600 40770
L77620 40720
L77650 40700
L77690 40670
" />
<path d="M78170 40670
L78220 40670
L78270 40700
L78290 40720
L78320 40770
L78340 40860
L78340 40980
L78320 41080
L78290 41120
L78270 41150
L78220 41170
L78170 41170
L78130 41150
L78100 41120
L78080 41080
L78060 40980
L78060 40860
L78080 40770
L78100 40720
L78130 40700
L78170 40670
" />
<path d="M78770 40840
L78770 41170
" />
<path d="M78560 40840
L78560 41100
L78580 41150
L78630 41170
L78700 41170
L78750 41150
L78770 41120
" />
<path d="M79180 40910
L79010 40910
" />
<path d="M79010 41170
L79010 40670
L79250 40670
" />
</g>
<g style="fill:#009F9F; fill-opacity:0.0; 
stroke:#009F9F; stroke-width:0; stroke-opacity:1; 
stroke-linecap:round; stroke-linejoin:round;">
</g>
<g style="fill:#9F0000; fill-opacity:0.0; 
stroke:#9F0000; stroke-width:60; stroke-opacity:1; 
stroke-linecap:round; stroke-linejoin:round;">
<path d="M48999.9 15991.3 A500 500 0.0 0 0 48000.1 15989.5 " />
<path d="M47999.9 15991.1 A510 510 0.0 0 0 46980.1 15989.3 " />
<path d="M46999.9 15991.1 A510 510 0.0 0 0 45980.1 15989.3 " />
<path d="M45999.9 15991.6 A480 480 0.0 0 0 45040.1 15989.9 " />
<path d="M45000 16000
L44000 16000
" />
<path d="M49000 16000
L50000 16000
" />
</g>
<g style="fill:#009F9F; fill-opacity:0.0; 
stroke:#009F9F; stroke-width:60; stroke-opacity:1; 
stroke-linecap:round; stroke-linejoin:round;">
<path d="M46940 16690
L46750 16690
L46750 16290
" />
<path d="M47270 16690
L47050 16690
" />
<path d="M47160 16690
L47160 16290
L47120 16350
L47080 16390
L47050 16410
" />
<path d="M46400 14930
L46400 15190
" />
<path d="M46300 14770
L46210 15060
L46450 15060
" />
<path d="M46610 15150
L46620 15170
L46610 15190
L46590 15170
L46610 15150
L46610 15190
" />
<path d="M46760 14790
L47020 14790
L46850 15190
" />
<path d="M47350 14930
L47350 15190
" />
<path d="M47180 14930
L47180 15130
L47190 15170
L47230 15190
L47290 15190
L47330 15170
L47350 15150
" />
<path d="M47540 15190
L47540 14790
" />
<path d="M47540 14980
L47760 14980
" />
<path d="M47760 15190
L47760 14790
" />
</g>
<g style="fill:#009F9F; fill-opacity:0.0; 
stroke:#009F9F; stroke-width:0; stroke-opacity:1; 
stroke-linecap:round; stroke-linejoin:round;">
</g>
<g style="fill:#9F0000; fill-opacity:1.0; 
stroke:#9F0000; stroke-width:60; stroke-opacity:1; 
stroke-linecap:round; stroke-linejoin:round;">
<polyline style="fill-rule:evenodd;"
points="59000,15500
60000,16000
59000,16500
" /> 
</g>
<g style="fill:#9F0000; fill-opacity:0.0; 
stroke:#9F0000; stroke-width:80; stroke-opacity:1; 
stroke-linecap:round; stroke-linejoin:round;">
<polyline fill="none;"
points="60250,15750
60250,15500
60000,15500
60000,16500
59750,16500
59750,16250
" /> 
</g>
<g style="fill:#9F0000; fill-opacity:0.0; 
stroke:#9F0000; stroke-width:60; stroke-opacity:1; 
stroke-linecap:round; stroke-linejoin:round;">
<path d="M59000 16000
L57500 16000
" />
<path d="M60000 16000
L61500 16000
" />
</g>
<g style="fill:#009F9F; fill-opacity:0.0; 
stroke:#009F9F; stroke-width:60; stroke-opacity:1; 
stroke-linecap:round; stroke-linejoin:round;">
<path d="M59210 15130
L59210 14730
L59300 14730
L59360 14750
L59400 14790
L59410 14830
L59430 14900
L59430 14960
L59410 15040
L59400 15070
L59360 15110
L59300 15130
L59210 15130
" />
<path d="M59810 15130
L59590 15130
" />
<path d="M59700 15130
L59700 14730
L59660 14790
L59620 14830
L59590 14850
" />
<path d="M58120 17130
L58120 16730
L58210 16730
L58270 16750
L58310 16790
L58320 16830
L58340 16900
L58340 16960
L58320 17040
L58310 17070
L58270 17110
L58210 17130
L58120 17130
" />
<path d="M58520 17130
L58520 16730
" />
<path d="M58780 16730
L58860 16730
L58900 16750
L58930 16790
L58950 16870
L58950 17000
L58930 17070
L58900 17110
L58860 17130
L58780 17130
L58740 17110
L58710 17070
L58690 17000
L58690 16870
L58710 16790
L58740 16750
L58780 16730
" />
<path d="M59130 17130
L59130 16730
L59220 16730
L59280 16750
L59320 16790
L59330 16830
L59350 16900
L59350 16960
L59330 17040
L59320 17070
L59280 17110
L59220 17130
L59130 17130
" />
<path d="M59530 16920
L59660 16920
" />
<path d="M59720 17130
L59530 17130
L59530 16730
L59720 16730
" />
<path d="M59870 17110
L59920 17130
L60020 17130
L60060 17110
L60080 17090
L60090 17060
L60090 17020
L60080 16980
L60060 16960
L60020 16940
L59940 16920
L59900 16900
L59890 16880
L59870 16850
L59870 16810
L59890 16770
L59900 16750
L59940 16730
L60040 16730
L60090 16750
" />
<path d="M60490 17090
L60470 17110
L60420 17130
L60380 17130
L60320 17110
L60280 17070
L60270 17040
L60250 16960
L60250 16900
L60270 16830
L60280 16790
L60320 16750
L60380 16730
L60420 16730
L60470 16750
L60490 16770
" />
<path d="M60670 17130
L60670 16730
" />
<path d="M60670 16920
L60890 16920
" />
<path d="M60890 17130
L60890 16730
" />
</g>
<g style="fill:#009F9F; fill-opacity:0.0; 
stroke:#009F9F; stroke-width:0; stroke-opacity:1; 
stroke-linecap:round; stroke-linejoin:round;">
</g>
<g style="fill:#9F0000; fill-opacity:0.0; 
stroke:#9F0000; stroke-width:60; stroke-opacity:1; 
stroke-linecap:round; stroke-linejoin:round;">
<rect x="39500" y="34500" width="16000" height="15500" rx="0" />
<path d="M42000 53000
L42000 50000
" />
</g>
<g style="fill:#009F9F; fill-opacity:0.0; 
stroke:#009F9F; stroke-width:60; stroke-opacity:1; 
stroke-linecap:round; stroke-linejoin:round;">
<path d="M41700 54280
L42200 54120
L41700 53950
" />
<path d="M42150 53500
L42180 53520
L42200 53590
L42200 53640
L42180 53710
L42130 53760
L42080 53780
L41990 53800
L41920 53800
L41820 53780
L41770 53760
L41730 53710
L41700 53640
L41700 53590
L41730 53520
L41750 53500
" />
</g>
<g style="fill:#9F0000; fill-opacity:0.0; 
stroke:#9F0000; stroke-width:60; stroke-opacity:1; 
stroke-linecap:round; stroke-linejoin:round;">
<path d="M41850 51360
L41850 51640
" />
<path d="M41850 51500
L41350 51500
L41420 51550
L41470 51600
L41500 51640
" />
<path d="M58500 48000
L55500 48000
" />
</g>
<g style="fill:#009F9F; fill-opacity:0.0; 
stroke:#009F9F; stroke-width:60; stroke-opacity:1; 
stroke-linecap:round; stroke-linejoin:round;">
<path d="M59190 47940
L59020 47940
" />
<path d="M59020 48200
L59020 47700
L59260 47700
" />
<path d="M59620 47940
L59690 47960
L59710 47990
L59730 48040
L59730 48110
L59710 48150
L59690 48180
L59640 48200
L59450 48200
L59450 47700
L59620 47700
L59660 47730
L59690 47750
L59710 47800
L59710 47850
L59690 47890
L59660 47920
L59620 47940
L59450 47940
" />
</g>
<g style="fill:#9F0000; fill-opacity:0.0; 
stroke:#9F0000; stroke-width:60; stroke-opacity:1; 
stroke-linecap:round; stroke-linejoin:round;">
<path d="M56860 47400
L56880 47380
L56930 47350
L57050 47350
L57090 47380
L57120 47400
L57140 47450
L57140 47500
L57120 47570
L56830 47850
L57140 47850
" />
<path d="M36500 47000
L39500 47000
" />
</g>
<g style="fill:#009F9F; fill-opacity:0.0; 
stroke:#009F9F; stroke-width:60; stroke-opacity:1; 
stroke-linecap:round; stroke-linejoin:round;">
<path d="M34180 47180
L34250 47200
L34370 47200
L34410 47180
L34440 47150
L34460 47110
L34460 47060
L34440 47010
L34410 46990
L34370 46960
L34270 46940
L34220 46920
L34200 46890
L34180 46850
L34180 46800
L34200 46750
L34220 46730
L34270 46700
L34390 46700
L34460 46730
" />
<path d="M34680 47200
L34680 46700
" />
<path d="M34680 46940
L34960 46940
" />
<path d="M34960 47200
L34960 46700
" />
<path d="M35200 47200
L35200 46700
L35320 46700
L35390 46730
L35440 46770
L35460 46820
L35480 46920
L35480 46990
L35460 47080
L35440 47130
L35390 47180
L35320 47200
L35200 47200
" />
<path d="M35700 47200
L35700 46700
L35980 47200
L35980 46700
" />
<path d="M34080 46610
L36100 46610
" />
</g>
<g style="fill:#9F0000; fill-opacity:0.0; 
stroke:#9F0000; stroke-width:60; stroke-opacity:1; 
stroke-linecap:round; stroke-linejoin:round;">
<path d="M37830 46350
L38140 46350
L37970 46540
L38050 46540
L38090 46570
L38120 46590
L38140 46640
L38140 46760
L38120 46800
L38090 46830
L38050 46850
L37900 46850
L37860 46830
L37830 46800
" />
<path d="M53500 53000
L53500 50000
" />
</g>
<g style="fill:#009F9F; fill-opacity:0.0; 
stroke:#009F9F; stroke-width:60; stroke-opacity:1; 
stroke-linecap:round; stroke-linejoin:round;">
<path d="M53230 54540
L53200 54590
L53200 54660
L53230 54730
L53270 54780
L53320 54800
L53420 54820
L53490 54820
L53580 54800
L53630 54780
L53680 54730
L53700 54660
L53700 54610
L53680 54540
L53650 54520
L53490 54520
L53490 54610
" />
<path d="M53700 54300
L53200 54300
L53700 54020
L53200 54020
" />
<path d="M53700 53780
L53200 53780
L53200 53660
L53230 53590
L53270 53540
L53320 53520
L53420 53500
L53490 53500
L53580 53520
L53630 53540
L53680 53590
L53700 53660
L53700 53780
" />
</g>
<g style="fill:#9F0000; fill-opacity:0.0; 
stroke:#9F0000; stroke-width:60; stroke-opacity:1; 
stroke-linecap:round; stroke-linejoin:round;">
<path d="M53020 51410
L53350 51410
" />
<path d="M52830 51530
L53190 51640
L53190 51340
" />
<path d="M53000 31500
L53000 34500
" />
</g>
<g style="fill:#009F9F; fill-opacity:0.0; 
stroke:#009F9F; stroke-width:60; stroke-opacity:1; 
stroke-linecap:round; stroke-linejoin:round;">
<path d="M53180 31000
L53200 30930
L53200 30810
L53180 30770
L53150 30740
L53110 30720
L53060 30720
L53010 30740
L52990 30770
L52960 30810
L52940 30910
L52920 30960
L52890 30980
L52850 31000
L52800 31000
L52750 30980
L52730 30960
L52700 30910
L52700 30790
L52730 30720
" />
<path d="M52700 30550
L53200 30430
L52850 30330
L53200 30240
L52700 30120
" />
</g>
<g style="fill:#9F0000; fill-opacity:0.0; 
stroke:#9F0000; stroke-width:60; stroke-opacity:1; 
stroke-linecap:round; stroke-linejoin:round;">
<path d="M52350 32880
L52350 33120
L52590 33140
L52570 33120
L52540 33070
L52540 32950
L52570 32910
L52590 32880
L52640 32860
L52760 32860
L52800 32880
L52830 32910
L52850 32950
L52850 33070
L52830 33120
L52800 33140
" />
<path d="M42000 31500
L42000 34500
" />
</g>
<g style="fill:#009F9F; fill-opacity:0.0; 
stroke:#009F9F; stroke-width:60; stroke-opacity:1; 
stroke-linecap:round; stroke-linejoin:round;">
<path d="M41700 31050
L42200 30890
L41700 30720
" />
<path d="M42200 30550
L41700 30550
" />
<path d="M42200 30310
L41700 30310
L42200 30030
L41700 30030
" />
</g>
<g style="fill:#9F0000; fill-opacity:0.0; 
stroke:#9F0000; stroke-width:60; stroke-opacity:1; 
stroke-linecap:round; stroke-linejoin:round;">
<path d="M41350 32910
L41350 33000
L41380 33050
L41400 33070
L41470 33120
L41570 33140
L41760 33140
L41800 33120
L41830 33100
L41850 33050
L41850 32950
L41830 32910
L41800 32880
L41760 32860
L41640 32860
L41590 32880
L41570 32910
L41540 32950
L41540 33050
L41570 33100
L41590 33120
L41640 33140
" />
<path d="M36500 37000
L39500 37000
" />
</g>
<g style="fill:#009F9F; fill-opacity:0.0; 
stroke:#009F9F; stroke-width:60; stroke-opacity:1; 
stroke-linecap:round; stroke-linejoin:round;">
<path d="M35320 37200
L35080 37200
L35080 36700
" />
<path d="M35650 36940
L35720 36960
L35740 36990
L35760 37040
L35760 37110
L35740 37150
L35720 37180
L35670 37200
L35480 37200
L35480 36700
L35650 36700
L35690 36730
L35720 36750
L35740 36800
L35740 36850
L35720 36890
L35690 36920
L35650 36940
L35480 36940
" />
<path d="M35980 37200
L35980 36700
" />
</g>
<g style="fill:#9F0000; fill-opacity:0.0; 
stroke:#9F0000; stroke-width:60; stroke-opacity:1; 
stroke-linecap:round; stroke-linejoin:round;">
<path d="M37830 36350
L38160 36350
L37950 36850
" />
<path d="M58500 36500
L55500 36500
" />
</g>
<g style="fill:#009F9F; fill-opacity:0.0; 
stroke:#009F9F; stroke-width:60; stroke-opacity:1; 
stroke-linecap:round; stroke-linejoin:round;">
<path d="M59260 36700
L59020 36700
L59020 36200
" />
<path d="M59590 36440
L59660 36460
L59680 36490
L59700 36540
L59700 36610
L59680 36650
L59660 36680
L59610 36700
L59420 36700
L59420 36200
L59590 36200
L59630 36230
L59660 36250
L59680 36300
L59680 36350
L59660 36390
L59630 36420
L59590 36440
L59420 36440
" />
<path d="M60010 36200
L60110 36200
L60160 36230
L60200 36270
L60230 36370
L60230 36540
L60200 36630
L60160 36680
L60110 36700
L60010 36700
L59970 36680
L59920 36630
L59900 36540
L59900 36370
L59920 36270
L59970 36230
L60010 36200
" />
</g>
<g style="fill:#9F0000; fill-opacity:0.0; 
stroke:#9F0000; stroke-width:60; stroke-opacity:1; 
stroke-linecap:round; stroke-linejoin:round;">
<path d="M56950 36070
L56900 36040
L56880 36020
L56860 35970
L56860 35950
L56880 35900
L56900 35880
L56950 35850
L57050 35850
L57090 35880
L57120 35900
L57140 35950
L57140 35970
L57120 36020
L57090 36040
L57050 36070
L56950 36070
L56900 36090
L56880 36110
L56860 36160
L56860 36260
L56880 36300
L56900 36330
L56950 36350
L57050 36350
L57090 36330
L57120 36300
L57140 36260
L57140 36160
L57120 36110
L57090 36090
L57050 36070
" />
</g>
<g style="fill:#009F9F; fill-opacity:0.0; 
stroke:#009F9F; stroke-width:60; stroke-opacity:1; 
stroke-linecap:round; stroke-linejoin:round;">
<path d="M47040 38610
L47040 39100
L47070 39160
L47100 39180
L47160 39210
L47270 39210
L47330 39180
L47360 39160
L47390 39100
L47390 38610
" />
<path d="M47990 39210
L47640 39210
" />
<path d="M47820 39210
L47820 38610
L47760 38700
L47700 38760
L47640 38780
" />
<path d="M46020 42210
L45730 42210
L45730 41610
" />
<path d="M46140 41610
L46480 41610
" />
<path d="M46310 42210
L46310 41610
" />
<path d="M47000 42210
L46650 42210
" />
<path d="M46830 42210
L46830 41610
L46770 41700
L46710 41760
L46650 41780
" />
<path d="M47200 41610
L47570 41610
L47370 41840
L47450 41840
L47510 41870
L47540 41900
L47570 41960
L47570 42100
L47540 42160
L47510 42180
L47450 42210
L47280 42210
L47220 42180
L47200 42160
" />
<path d="M47940 41610
L47990 41610
L48050 41640
L48080 41670
L48110 41730
L48140 41840
L48140 41980
L48110 42100
L48080 42160
L48050 42180
L47990 42210
L47940 42210
L47880 42180
L47850 42160
L47820 42100
L47790 41980
L47790 41840
L47820 41730
L47850 41670
L47880 41640
L47940 41610
" />
<path d="M48480 41870
L48420 41840
L48390 41810
L48360 41760
L48360 41730
L48390 41670
L48420 41640
L48480 41610
L48590 41610
L48650 41640
L48680 41670
L48710 41730
L48710 41760
L48680 41810
L48650 41840
L48590 41870
L48480 41870
L48420 41900
L48390 41930
L48360 41980
L48360 42100
L48390 42160
L48420 42180
L48480 42210
L48590 42210
L48650 42180
L48680 42160
L48710 42100
L48710 41980
L48680 41930
L48650 41900
L48590 41870
" />
<path d="M49160 41900
L49250 41930
L49280 41960
L49310 42010
L49310 42100
L49280 42160
L49250 42180
L49190 42210
L48960 42210
L48960 41610
L49160 41610
L49220 41640
L49250 41670
L49280 41730
L49280 41780
L49250 41840
L49220 41870
L49160 41900
L48960 41900
" />
</g>
<g style="fill:#009F9F; fill-opacity:0.0; 
stroke:#009F9F; stroke-width:0; stroke-opacity:1; 
stroke-linecap:round; stroke-linejoin:round;">
</g>
<g style="fill:#9F0000; fill-opacity:0.0; 
stroke:#9F0000; stroke-width:120; stroke-opacity:1; 
stroke-linecap:round; stroke-linejoin:round;">
<rect x="66600" y="41000" width="800" height="3000" rx="0" />
</g>
<g style="fill:#9F0000; fill-opacity:0.0; 
stroke:#9F0000; stroke-width:60; stroke-opacity:1; 
stroke-linecap:round; stroke-linejoin:round;">
<path d="M67000 41000
L67000 40000
" />
</g>
<g style="fill:#009F9F; fill-opacity:0.0; 
stroke:#009F9F; stroke-width:60; stroke-opacity:1; 
stroke-linecap:round; stroke-linejoin:round;">
</g>
<g style="fill:#9F0000; fill-opacity:0.0; 
stroke:#9F0000; stroke-width:60; stroke-opacity:1; 
stroke-linecap:round; stroke-linejoin:round;">
<path d="M67000 44000
L67000 45000
" />
</g>
<g style="fill:#009F9F; fill-opacity:0.0; 
stroke:#009F9F; stroke-width:60; stroke-opacity:1; 
stroke-linecap:round; stroke-linejoin:round;">
<path d="M67930 42570
L67740 42700
" />
<path d="M67930 42790
L67530 42790
L67530 42640
L67550 42600
L67570 42590
L67610 42570
L67670 42570
L67700 42590
L67720 42600
L67740 42640
L67740 42790
" />
<path d="M67530 42200
L67530 42390
L67720 42410
L67700 42390
L67680 42360
L67680 42260
L67700 42220
L67720 42200
L67760 42190
L67860 42190
L67890 42200
L67910 42220
L67930 42260
L67930 42360
L67910 42390
L67890 42410
" />
<path d="M66970 43110
L66950 43150
L66940 43160
L66900 43180
L66880 43180
L66840 43160
L66820 43150
L66800 43110
L66800 43030
L66820 42990
L66840 42970
L66880 42960
L66900 42960
L66940 42970
L66950 42990
L66970 43030
L66970 43110
L66990 43150
L67010 43160
L67050 43180
L67130 43180
L67160 43160
L67180 43150
L67200 43110
L67200 43030
L67180 42990
L67160 42970
L67130 42960
L67050 42960
L67010 42970
L66990 42990
L66970 43030
" />
<path d="M66970 42730
L66950 42770
L66940 42780
L66900 42800
L66880 42800
L66840 42780
L66820 42770
L66800 42730
L66800 42650
L66820 42610
L66840 42590
L66880 42580
L66900 42580
L66940 42590
L66950 42610
L66970 42650
L66970 42730
L66990 42770
L67010 42780
L67050 42800
L67130 42800
L67160 42780
L67180 42770
L67200 42730
L67200 42650
L67180 42610
L67160 42590
L67130 42580
L67050 42580
L67010 42590
L66990 42610
L66970 42650
" />
<path d="M66800 42440
L66800 42180
L67200 42350
" />
<path d="M67200 42020
L66800 42020
" />
<path d="M67200 41800
L66970 41970
" />
<path d="M66800 41800
L67030 42020
" />
</g>
<g style="fill:#009F9F; fill-opacity:0.0; 
stroke:#009F9F; stroke-width:0; stroke-opacity:1; 
stroke-linecap:round; stroke-linejoin:round;">
</g>
<g style="fill:#9F0000; fill-opacity:0.0; 
stroke:#9F0000; stroke-width:120; stroke-opacity:1; 
stroke-linecap:round; stroke-linejoin:round;">
<rect x="66600" y="52500" width="800" height="3000" rx="0" />
</g>
<g style="fill:#9F0000; fill-opacity:0.0; 
stroke:#9F0000; stroke-width:60; stroke-opacity:1; 
stroke-linecap:round; stroke-linejoin:round;">
<path d="M67000 52500
L67000 51500
" />
</g>
<g style="fill:#009F9F; fill-opacity:0.0; 
stroke:#009F9F; stroke-width:60; stroke-opacity:1; 
stroke-linecap:round; stroke-linejoin:round;">
</g>
<g style="fill:#9F0000; fill-opacity:0.0; 
stroke:#9F0000; stroke-width:60; stroke-opacity:1; 
stroke-linecap:round; stroke-linejoin:round;">
<path d="M67000 55500
L67000 56500
" />
</g>
<g style="fill:#009F9F; fill-opacity:0.0; 
stroke:#009F9F; stroke-width:60; stroke-opacity:1; 
stroke-linecap:round; stroke-linejoin:round;">
<path d="M67930 54070
L67740 54200
" />
<path d="M67930 54290
L67530 54290
L67530 54140
L67550 54100
L67570 54090
L67610 54070
L67670 54070
L67700 54090
L67720 54100
L67740 54140
L67740 54290
" />
<path d="M67530 53720
L67530 53800
L67550 53840
L67570 53860
L67630 53890
L67700 53910
L67860 53910
L67890 53890
L67910 53880
L67930 53840
L67930 53760
L67910 53720
L67890 53700
L67860 53690
L67760 53690
L67720 53700
L67700 53720
L67680 53760
L67680 53840
L67700 53880
L67720 53890
L67760 53910
" />
<path d="M67200 54460
L67200 54680
" />
<path d="M67200 54570
L66800 54570
L66860 54610
L66900 54650
L66920 54680
" />
<path d="M66800 54210
L66800 54170
L66820 54130
L66840 54110
L66880 54090
L66950 54080
L67050 54080
L67130 54090
L67160 54110
L67180 54130
L67200 54170
L67200 54210
L67180 54250
L67160 54270
L67130 54280
L67050 54300
L66950 54300
L66880 54280
L66840 54270
L66820 54250
L66800 54210
" />
<path d="M66800 53830
L66800 53790
L66820 53750
L66840 53730
L66880 53710
L66950 53700
L67050 53700
L67130 53710
L67160 53730
L67180 53750
L67200 53790
L67200 53830
L67180 53870
L67160 53890
L67130 53900
L67050 53920
L66950 53920
L66880 53900
L66840 53890
L66820 53870
L66800 53830
" />
<path d="M67200 53520
L66800 53520
" />
<path d="M67200 53300
L66970 53470
" />
<path d="M66800 53300
L67030 53520
" />
</g>
<g style="fill:#009F9F; fill-opacity:0.0; 
stroke:#009F9F; stroke-width:0; stroke-opacity:1; 
stroke-linecap:round; stroke-linejoin:round;">
</g>
<g style="fill:#9F0000; fill-opacity:0.0; 
stroke:#9F0000; stroke-width:60; stroke-opacity:1; 
stroke-linecap:round; stroke-linejoin:round;">
<polyline fill="none;"
points="76000,70500
76500,71000
77000,70500
76000,70500
" /> 
</g>
<g style="fill:#9F0000; fill-opacity:0.0; 
stroke:#9F0000; stroke-width:0; stroke-opacity:1; 
stroke-linecap:round; stroke-linejoin:round;">
</g>
<g style="fill:#9F0000; fill-opacity:0.0; 
stroke:#9F0000; stroke-width:120; stroke-opacity:1; 
stroke-linecap:round; stroke-linejoin:round;">
<rect x="41600" y="56000" width="800" height="3000" rx="0" />
</g>
<g style="fill:#9F0000; fill-opacity:0.0; 
stroke:#9F0000; stroke-width:60; stroke-opacity:1; 
stroke-linecap:round; stroke-linejoin:round;">
<path d="M42000 56000
L42000 55000
" />
</g>
<g style="fill:#009F9F; fill-opacity:0.0; 
stroke:#009F9F; stroke-width:60; stroke-opacity:1; 
stroke-linecap:round; stroke-linejoin:round;">
</g>
<g style="fill:#9F0000; fill-opacity:0.0; 
stroke:#9F0000; stroke-width:60; stroke-opacity:1; 
stroke-linecap:round; stroke-linejoin:round;">
<path d="M42000 59000
L42000 60000
" />
</g>
<g style="fill:#009F9F; fill-opacity:0.0; 
stroke:#009F9F; stroke-width:60; stroke-opacity:1; 
stroke-linecap:round; stroke-linejoin:round;">
<path d="M42930 57570
L42740 57700
" />
<path d="M42930 57790
L42530 57790
L42530 57640
L42550 57600
L42570 57590
L42610 57570
L42670 57570
L42700 57590
L42720 57600
L42740 57640
L42740 57790
" />
<path d="M42530 57430
L42530 57190
L42680 57320
L42680 57260
L42700 57220
L42720 57200
L42760 57190
L42860 57190
L42890 57200
L42910 57220
L42930 57260
L42930 57380
L42910 57410
L42890 57430
" />
<path d="M41940 57800
L42200 57800
" />
<path d="M41780 57900
L42070 57990
L42070 57750
" />
<path d="M41800 57630
L41800 57370
L42200 57540
" />
<path d="M42200 57210
L41800 57210
" />
<path d="M42200 56990
L41970 57160
" />
<path d="M41800 56990
L42030 57210
" />
</g>
<g style="fill:#009F9F; fill-opacity:0.0; 
stroke:#009F9F; stroke-width:0; stroke-opacity:1; 
stroke-linecap:round; stroke-linejoin:round;">
</g>
<g style="fill:#9F0000; fill-opacity:0.0; 
stroke:#9F0000; stroke-width:200; stroke-opacity:1; 
stroke-linecap:round; stroke-linejoin:round;">
<polyline fill="none;"
points="41200,63800
42800,63800
" /> 
<polyline fill="none;"
points="41200,63200
42800,63200
" /> 
</g>
<g style="fill:#9F0000; fill-opacity:0.0; 
stroke:#9F0000; stroke-width:60; stroke-opacity:1; 
stroke-linecap:round; stroke-linejoin:round;">
<path d="M42000 63200
L42000 61500
" />
</g>
<g style="fill:#009F9F; fill-opacity:0.0; 
stroke:#009F9F; stroke-width:60; stroke-opacity:1; 
stroke-linecap:round; stroke-linejoin:round;">
</g>
<g style="fill:#9F0000; fill-opacity:0.0; 
stroke:#9F0000; stroke-width:60; stroke-opacity:1; 
stroke-linecap:round; stroke-linejoin:round;">
<path d="M42000 63800
L42000 65500
" />
</g>
<g style="fill:#009F9F; fill-opacity:0.0; 
stroke:#009F9F; stroke-width:60; stroke-opacity:1; 
stroke-linecap:round; stroke-linejoin:round;">
<path d="M42320 62590
L42300 62610
L42250 62630
L42210 62630
L42150 62610
L42110 62570
L42100 62540
L42080 62460
L42080 62400
L42100 62330
L42110 62290
L42150 62250
L42210 62230
L42250 62230
L42300 62250
L42320 62270
" />
<path d="M42480 62270
L42500 62250
L42530 62230
L42630 62230
L42670 62250
L42690 62270
L42700 62310
L42700 62350
L42690 62400
L42460 62630
L42700 62630
" />
<path d="M42120 64080
L42360 64080
L42230 64230
L42290 64230
L42330 64250
L42350 64270
L42360 64310
L42360 64410
L42350 64440
L42330 64460
L42290 64480
L42170 64480
L42140 64460
L42120 64440
" />
<path d="M42500 64080
L42740 64080
L42610 64230
L42670 64230
L42710 64250
L42730 64270
L42740 64310
L42740 64410
L42730 64440
L42710 64460
L42670 64480
L42550 64480
L42520 64460
L42500 64440
" />
<path d="M42990 64080
L43030 64080
L43070 64100
L43090 64120
L43110 64160
L43120 64230
L43120 64330
L43110 64410
L43090 64440
L43070 64460
L43030 64480
L42990 64480
L42950 64460
L42930 64440
L42920 64410
L42900 64330
L42900 64230
L42920 64160
L42930 64120
L42950 64100
L42990 64080
" />
<path d="M43300 64220
L43300 64620
" />
<path d="M43300 64230
L43330 64220
L43410 64220
L43450 64230
L43470 64250
L43490 64290
L43490 64410
L43470 64440
L43450 64460
L43410 64480
L43330 64480
L43300 64460
" />
<path d="M43790 64270
L43660 64270
" />
<path d="M43660 64480
L43660 64080
L43850 64080
" />
</g>
<g style="fill:#009F9F; fill-opacity:0.0; 
stroke:#009F9F; stroke-width:0; stroke-opacity:1; 
stroke-linecap:round; stroke-linejoin:round;">
</g>
<g style="fill:#9F0000; fill-opacity:0.0; 
stroke:#9F0000; stroke-width:60; stroke-opacity:1; 
stroke-linecap:round; stroke-linejoin:round;">
<polyline fill="none;"
points="33500,47000
31500,48000
" /> 
<circle cx="31130" cy="48000" r="350" /> 
<path d="M30780 48000
L28500 48000
" />
<path d="M30160 47840
L29830 47840
" />
<path d="M30000 47840
L30000 47260
L29940 47350
L29890 47400
L29830 47430
" />
<circle cx="33860" cy="47000" r="350" /> 
<path d="M34210 47000
L36500 47000
" />
<path d="M34830 46310
L34860 46280
L34920 46250
L35060 46250
L35110 46280
L35140 46310
L35170 46370
L35170 46420
L35140 46510
L34800 46840
L35170 46840
" />
<circle cx="31140" cy="46000" r="350" /> 
<path d="M30790 46000
L28500 46000
" />
<path d="M29790 45250
L30160 45250
L29960 45480
L30050 45480
L30100 45510
L30130 45530
L30160 45590
L30160 45730
L30130 45790
L30100 45820
L30050 45840
L29880 45840
L29820 45820
L29790 45790
" />
</g>
<g style="fill:#009F9F; fill-opacity:0.0; 
stroke:#009F9F; stroke-width:60; stroke-opacity:1; 
stroke-linecap:round; stroke-linejoin:round;">
<path d="M31690 49740
L31780 49770
L31920 49770
L31980 49740
L32010 49720
L32040 49660
L32040 49600
L32010 49540
L31980 49520
L31920 49490
L31810 49460
L31750 49430
L31720 49400
L31690 49340
L31690 49290
L31720 49230
L31750 49200
L31810 49170
L31950 49170
L32040 49200
" />
<path d="M32240 49170
L32380 49770
L32490 49340
L32610 49770
L32750 49170
" />
<path d="M33300 49770
L32950 49770
" />
<path d="M33130 49770
L33130 49170
L33070 49260
L33010 49320
L32950 49340
" />
<path d="M29300 44730
L29390 44750
L29530 44750
L29580 44730
L29610 44700
L29640 44640
L29640 44590
L29610 44530
L29580 44500
L29530 44470
L29410 44440
L29360 44420
L29330 44390
L29300 44330
L29300 44280
L29330 44220
L29360 44190
L29410 44160
L29560 44160
L29640 44190
" />
<path d="M29830 44160
L29970 44750
L30090 44330
L30200 44750
L30340 44160
" />
<path d="M30560 44750
L30560 44160
" />
<path d="M30760 44160
L31090 44160
" />
<path d="M30920 44750
L30920 44160
" />
<path d="M31630 44700
L31600 44730
L31520 44750
L31460 44750
L31370 44730
L31320 44670
L31290 44610
L31260 44500
L31260 44420
L31290 44300
L31320 44250
L31370 44190
L31460 44160
L31520 44160
L31600 44190
L31630 44220
" />
<path d="M31880 44750
L31880 44160
" />
<path d="M31880 44440
L32220 44440
" />
<path d="M32220 44750
L32220 44160
" />
<path d="M32360 44810
L32810 44810
" />
<path d="M32920 44730
L33010 44750
L33150 44750
L33200 44730
L33230 44700
L33260 44640
L33260 44590
L33230 44530
L33200 44500
L33150 44470
L33030 44440
L32980 44420
L32950 44390
L32920 44330
L32920 44280
L32950 44220
L32980 44190
L33030 44160
L33180 44160
L33260 44190
" />
<path d="M33510 44750
L33510 44160
L33740 44160
L33790 44190
L33820 44220
L33850 44280
L33850 44360
L33820 44420
L33790 44440
L33740 44470
L33510 44470
" />
<path d="M34100 44750
L34100 44160
L34240 44160
L34330 44190
L34380 44250
L34410 44300
L34440 44420
L34440 44500
L34410 44610
L34380 44670
L34330 44730
L34240 44750
L34100 44750
" />
<path d="M34610 44160
L34940 44160
" />
<path d="M34770 44750
L34770 44160
" />
</g>
<g style="fill:#009F9F; fill-opacity:0.0; 
stroke:#009F9F; stroke-width:0; stroke-opacity:1; 
stroke-linecap:round; stroke-linejoin:round;">
</g>
<g style="fill:#9F0000; fill-opacity:0.0; 
stroke:#9F0000; stroke-width:120; stroke-opacity:1; 
stroke-linecap:round; stroke-linejoin:round;">
<rect x="36100" y="27500" width="800" height="3000" rx="0" />
</g>
<g style="fill:#9F0000; fill-opacity:0.0; 
stroke:#9F0000; stroke-width:60; stroke-opacity:1; 
stroke-linecap:round; stroke-linejoin:round;">
<path d="M36500 27500
L36500 26500
" />
</g>
<g style="fill:#009F9F; fill-opacity:0.0; 
stroke:#009F9F; stroke-width:60; stroke-opacity:1; 
stroke-linecap:round; stroke-linejoin:round;">
</g>
<g style="fill:#9F0000; fill-opacity:0.0; 
stroke:#9F0000; stroke-width:60; stroke-opacity:1; 
stroke-linecap:round; stroke-linejoin:round;">
<path d="M36500 30500
L36500 31500
" />
</g>
<g style="fill:#009F9F; fill-opacity:0.0; 
stroke:#009F9F; stroke-width:60; stroke-opacity:1; 
stroke-linecap:round; stroke-linejoin:round;">
<path d="M37430 29070
L37240 29200
" />
<path d="M37430 29290
L37030 29290
L37030 29140
L37050 29100
L37070 29090
L37110 29070
L37170 29070
L37200 29090
L37220 29100
L37240 29140
L37240 29290
" />
<path d="M37430 28690
L37430 28910
" />
<path d="M37430 28800
L37030 28800
L37090 28840
L37130 28880
L37150 28910
" />
<path d="M36700 29380
L36700 29600
" />
<path d="M36700 29490
L36300 29490
L36360 29530
L36400 29570
L36420 29600
" />
<path d="M36660 29200
L36680 29190
L36700 29200
L36680 29220
L36660 29200
L36700 29200
" />
<path d="M36440 28840
L36700 28840
" />
<path d="M36280 28940
L36570 29030
L36570 28790
" />
<path d="M36700 28630
L36300 28630
L36590 28500
L36300 28370
L36700 28370
" />
</g>
<g style="fill:#009F9F; fill-opacity:0.0; 
stroke:#009F9F; stroke-width:0; stroke-opacity:1; 
stroke-linecap:round; stroke-linejoin:round;">
</g>
<g style="fill:#9F0000; fill-opacity:0.0; 
stroke:#9F0000; stroke-width:60; stroke-opacity:1; 
stroke-linecap:round; stroke-linejoin:round;">
<polyline fill="none;"
points="36000,43500
36500,44000
37000,43500
36000,43500
" /> 
</g>
<g style="fill:#9F0000; fill-opacity:0.0; 
stroke:#9F0000; stroke-width:0; stroke-opacity:1; 
stroke-linecap:round; stroke-linejoin:round;">
</g>
<g style="fill:#9F0000; fill-opacity:0.0; 
stroke:#9F0000; stroke-width:120; stroke-opacity:1; 
stroke-linecap:round; stroke-linejoin:round;">
<rect x="36100" y="38500" width="800" height="3000" rx="0" />
</g>
<g style="fill:#9F0000; fill-opacity:0.0; 
stroke:#9F0000; stroke-width:60; stroke-opacity:1; 
stroke-linecap:round; stroke-linejoin:round;">
<path d="M36500 38500
L36500 37500
" />
</g>
<g style="fill:#009F9F; fill-opacity:0.0; 
stroke:#009F9F; stroke-width:60; stroke-opacity:1; 
stroke-linecap:round; stroke-linejoin:round;">
</g>
<g style="fill:#9F0000; fill-opacity:0.0; 
stroke:#9F0000; stroke-width:60; stroke-opacity:1; 
stroke-linecap:round; stroke-linejoin:round;">
<path d="M36500 41500
L36500 42500
" />
</g>
<g style="fill:#009F9F; fill-opacity:0.0; 
stroke:#009F9F; stroke-width:60; stroke-opacity:1; 
stroke-linecap:round; stroke-linejoin:round;">
<path d="M37430 40070
L37240 40200
" />
<path d="M37430 40290
L37030 40290
L37030 40140
L37050 40100
L37070 40090
L37110 40070
L37170 40070
L37200 40090
L37220 40100
L37240 40140
L37240 40290
" />
<path d="M37070 39910
L37050 39890
L37030 39860
L37030 39760
L37050 39720
L37070 39700
L37110 39690
L37150 39690
L37200 39700
L37430 39930
L37430 39690
" />
<path d="M36700 40460
L36700 40680
" />
<path d="M36700 40570
L36300 40570
L36360 40610
L36400 40650
L36420 40680
" />
<path d="M36300 40210
L36300 40170
L36320 40130
L36340 40110
L36380 40090
L36450 40080
L36550 40080
L36630 40090
L36660 40110
L36680 40130
L36700 40170
L36700 40210
L36680 40250
L36660 40270
L36630 40280
L36550 40300
L36450 40300
L36380 40280
L36340 40270
L36320 40250
L36300 40210
" />
<path d="M36300 39830
L36300 39790
L36320 39750
L36340 39730
L36380 39710
L36450 39700
L36550 39700
L36630 39710
L36660 39730
L36680 39750
L36700 39790
L36700 39830
L36680 39870
L36660 39890
L36630 39900
L36550 39920
L36450 39920
L36380 39900
L36340 39890
L36320 39870
L36300 39830
" />
<path d="M36700 39520
L36300 39520
" />
<path d="M36700 39300
L36470 39470
" />
<path d="M36300 39300
L36530 39520
" />
</g>
<g style="fill:#009F9F; fill-opacity:0.0; 
stroke:#009F9F; stroke-width:0; stroke-opacity:1; 
stroke-linecap:round; stroke-linejoin:round;">
</g>
<g style="fill:#9F0000; fill-opacity:0.0; 
stroke:#9F0000; stroke-width:60; stroke-opacity:1; 
stroke-linecap:round; stroke-linejoin:round;">
<circle cx="17500" cy="12500" r="200" /> 
<polyline fill="none;"
points="17500,13000
17500,12700
17500,12700
" /> 
</g>
<g style="fill:#009F9F; fill-opacity:0.0; 
stroke:#009F9F; stroke-width:50; stroke-opacity:1; 
stroke-linecap:round; stroke-linejoin:round;">
<path d="M17100 11800
L17200 12100
L17300 11800
" />
<path d="M17570 12070
L17560 12090
L17520 12100
L17490 12100
L17440 12090
L17420 12060
L17400 12030
L17390 11970
L17390 11930
L17400 11870
L17420 11840
L17440 11820
L17490 11800
L17520 11800
L17560 11820
L17570 11830
" />
<path d="M17870 12070
L17860 12090
L17820 12100
L17790 12100
L17740 12090
L17720 12060
L17700 12030
L17690 11970
L17690 11930
L17700 11870
L17720 11840
L17740 11820
L17790 11800
L17820 11800
L17860 11820
L17870 11830
" />
</g>
<g style="fill:#009F9F; fill-opacity:0.0; 
stroke:#009F9F; stroke-width:0; stroke-opacity:1; 
stroke-linecap:round; stroke-linejoin:round;">
</g>
<g style="fill:#9F0000; fill-opacity:0.0; 
stroke:#9F0000; stroke-width:60; stroke-opacity:1; 
stroke-linecap:round; stroke-linejoin:round;">
<circle cx="63000" cy="19000" r="200" /> 
<polyline fill="none;"
points="63000,19500
63000,19200
63000,19200
" /> 
</g>
<g style="fill:#009F9F; fill-opacity:0.0; 
stroke:#009F9F; stroke-width:50; stroke-opacity:1; 
stroke-linecap:round; stroke-linejoin:round;">
<path d="M62600 18300
L62700 18600
L62800 18300
" />
<path d="M63070 18570
L63060 18590
L63020 18600
L62990 18600
L62940 18590
L62920 18560
L62900 18530
L62890 18470
L62890 18430
L62900 18370
L62920 18340
L62940 18320
L62990 18300
L63020 18300
L63060 18320
L63070 18330
" />
<path d="M63370 18570
L63360 18590
L63320 18600
L63290 18600
L63240 18590
L63220 18560
L63200 18530
L63190 18470
L63190 18430
L63200 18370
L63220 18340
L63240 18320
L63290 18300
L63320 18300
L63360 18320
L63370 18330
" />
</g>
<g style="fill:#009F9F; fill-opacity:0.0; 
stroke:#009F9F; stroke-width:0; stroke-opacity:1; 
stroke-linecap:round; stroke-linejoin:round;">
</g>
<g style="fill:#9F0000; fill-opacity:0.0; 
stroke:#9F0000; stroke-width:120; stroke-opacity:1; 
stroke-linecap:round; stroke-linejoin:round;">
<rect x="62600" y="23000" width="800" height="3000" rx="0" />
</g>
<g style="fill:#9F0000; fill-opacity:0.0; 
stroke:#9F0000; stroke-width:60; stroke-opacity:1; 
stroke-linecap:round; stroke-linejoin:round;">
<path d="M63000 23000
L63000 22000
" />
</g>
<g style="fill:#009F9F; fill-opacity:0.0; 
stroke:#009F9F; stroke-width:60; stroke-opacity:1; 
stroke-linecap:round; stroke-linejoin:round;">
</g>
<g style="fill:#9F0000; fill-opacity:0.0; 
stroke:#9F0000; stroke-width:60; stroke-opacity:1; 
stroke-linecap:round; stroke-linejoin:round;">
<path d="M63000 26000
L63000 27000
" />
</g>
<g style="fill:#009F9F; fill-opacity:0.0; 
stroke:#009F9F; stroke-width:60; stroke-opacity:1; 
stroke-linecap:round; stroke-linejoin:round;">
<path d="M63930 24570
L63740 24700
" />
<path d="M63930 24790
L63530 24790
L63530 24640
L63550 24600
L63570 24590
L63610 24570
L63670 24570
L63700 24590
L63720 24600
L63740 24640
L63740 24790
" />
<path d="M63670 24220
L63930 24220
" />
<path d="M63510 24320
L63800 24410
L63800 24170
" />
<path d="M62800 24770
L62800 24960
L62990 24980
L62970 24960
L62950 24930
L62950 24830
L62970 24790
L62990 24770
L63030 24760
L63130 24760
L63160 24770
L63180 24790
L63200 24830
L63200 24930
L63180 24960
L63160 24980
" />
<path d="M62800 24410
L62800 24490
L62820 24530
L62840 24550
L62900 24580
L62970 24600
L63130 24600
L63160 24580
L63180 24570
L63200 24530
L63200 24450
L63180 24410
L63160 24390
L63130 24380
L63030 24380
L62990 24390
L62970 24410
L62950 24450
L62950 24530
L62970 24570
L62990 24580
L63030 24600
" />
<path d="M62800 24130
L62800 24090
L62820 24050
L62840 24030
L62880 24010
L62950 24000
L63050 24000
L63130 24010
L63160 24030
L63180 24050
L63200 24090
L63200 24130
L63180 24170
L63160 24190
L63130 24200
L63050 24220
L62950 24220
L62880 24200
L62840 24190
L62820 24170
L62800 24130
" />
</g>
<g style="fill:#009F9F; fill-opacity:0.0; 
stroke:#009F9F; stroke-width:0; stroke-opacity:1; 
stroke-linecap:round; stroke-linejoin:round;">
</g>
<g style="fill:#9F0000; fill-opacity:0.0; 
stroke:#9F0000; stroke-width:60; stroke-opacity:1; 
stroke-linecap:round; stroke-linejoin:round;">
<polyline fill="none;"
points="63500,32000
62500,32000
" /> 
</g>
<g style="fill:#9F0000; fill-opacity:1.0; 
stroke:#9F0000; stroke-width:60; stroke-opacity:1; 
stroke-linecap:round; stroke-linejoin:round;">
<polyline style="fill-rule:evenodd;"
points="63500,31000
63000,32000
62500,31000
" /> 
</g>
<g style="fill:#9F0000; fill-opacity:0.0; 
stroke:#9F0000; stroke-width:60; stroke-opacity:1; 
stroke-linecap:round; stroke-linejoin:round;">
<polyline fill="none;"
points="62600,32150
62200,32600
62450,32550
" /> 
<polyline fill="none;"
points="62750,32300
62350,32750
62600,32700
" /> 
<path d="M63000 31000
L63000 29500
" />
<path d="M62860 30140
L62860 30360
" />
<path d="M62860 30250
L62460 30250
L62520 30290
L62560 30330
L62580 30360
" />
<path d="M63000 32000
L63000 33500
" />
<path d="M62500 32860
L62480 32840
L62460 32810
L62460 32710
L62480 32670
L62500 32650
L62540 32640
L62580 32640
L62630 32650
L62860 32880
L62860 32640
" />
</g>
<g style="fill:#009F9F; fill-opacity:0.0; 
stroke:#009F9F; stroke-width:60; stroke-opacity:1; 
stroke-linecap:round; stroke-linejoin:round;">
<path d="M64230 31870
L63730 31870
L63730 31750
L63760 31680
L63800 31630
L63850 31610
L63950 31590
L64020 31590
L64110 31610
L64160 31630
L64210 31680
L64230 31750
L64230 31870
" />
<path d="M63780 31390
L63760 31370
L63730 31320
L63730 31200
L63760 31160
L63780 31130
L63830 31110
L63880 31110
L63950 31130
L64230 31420
L64230 31110
" />
<path d="M62230 31810
L62230 32050
L61730 32050
" />
<path d="M61970 31650
L61970 31480
" />
<path d="M62230 31410
L62230 31650
L61730 31650
L61730 31410
" />
<path d="M62230 31200
L61730 31200
L61730 31080
L61760 31010
L61800 30960
L61850 30940
L61950 30920
L62020 30920
L62110 30940
L62160 30960
L62210 31010
L62230 31080
L62230 31200
" />
</g>
<g style="fill:#009F00; fill-opacity:0.0; 
stroke:#009F00; stroke-width:60; stroke-opacity:1; 
stroke-linecap:round; stroke-linejoin:round;">
<path d="M50000 16000
L57500 16000
" />
<path d="M58500 48000
L67000 48000
" />
<path d="M67000 45000
L67000 51500
" />
</g>
<g style="fill:#009F00; fill-opacity:0.0; 
stroke:#009F00; stroke-width:0; stroke-opacity:1; 
stroke-linecap:round; stroke-linejoin:round;">
</g>
<g style="fill:#009F00; fill-opacity:1.0; 
stroke:#009F00; stroke-width:100; stroke-opacity:1; 
stroke-linecap:round; stroke-linejoin:round;">
<circle cx="67000" cy="48000" r="160" /> 
</g>
<g style="fill:#009F00; fill-opacity:1.0; 
stroke:#009F00; stroke-width:60; stroke-opacity:1; 
stroke-linecap:round; stroke-linejoin:round;">
<path d="M61500 16000
L82000 16000
" />
<path d="M17500 45000
L17500 67500
" />
<path d="M17500 67500
L67500 67500
" />
<path d="M67000 67500
L76500 67500
" />
<path d="M76500 42000
L76500 70500
" />
</g>
<g style="fill:#009F00; fill-opacity:1.0; 
stroke:#009F00; stroke-width:0; stroke-opacity:1; 
stroke-linecap:round; stroke-linejoin:round;">
</g>
<g style="fill:#009F00; fill-opacity:1.0; 
stroke:#009F00; stroke-width:100; stroke-opacity:1; 
stroke-linecap:round; stroke-linejoin:round;">
<circle cx="76500" cy="67500" r="160" /> 
</g>
<g style="fill:#009F00; fill-opacity:1.0; 
stroke:#009F00; stroke-width:60; stroke-opacity:1; 
stroke-linecap:round; stroke-linejoin:round;">
<path d="M67000 56500
L67000 67500
" />
</g>
<g style="fill:#009F00; fill-opacity:1.0; 
stroke:#009F00; stroke-width:0; stroke-opacity:1; 
stroke-linecap:round; stroke-linejoin:round;">
</g>
<g style="fill:#009F00; fill-opacity:1.0; 
stroke:#009F00; stroke-width:100; stroke-opacity:1; 
stroke-linecap:round; stroke-linejoin:round;">
<circle cx="67000" cy="67500" r="160" /> 
</g>
<g style="fill:#009F00; fill-opacity:1.0; 
stroke:#009F00; stroke-width:60; stroke-opacity:1; 
stroke-linecap:round; stroke-linejoin:round;">
<path d="M53500 53000
L53500 67500
" />
</g>
<g style="fill:#009F00; fill-opacity:1.0; 
stroke:#009F00; stroke-width:0; stroke-opacity:1; 
stroke-linecap:round; stroke-linejoin:round;">
</g>
<g style="fill:#009F00; fill-opacity:1.0; 
stroke:#009F00; stroke-width:100; stroke-opacity:1; 
stroke-linecap:round; stroke-linejoin:round;">
<circle cx="53500" cy="67500" r="160" /> 
</g>
<g style="fill:#009F00; fill-opacity:1.0; 
stroke:#009F00; stroke-width:60; stroke-opacity:1; 
stroke-linecap:round; stroke-linejoin:round;">
<path d="M42000 53000
L42000 55000
" />
</g>
<g style="fill:#009F00; fill-opacity:1.0; 
stroke:#009F00; stroke-width:0; stroke-opacity:1; 
stroke-linecap:round; stroke-linejoin:round;">
</g>
<g style="fill:#009F00; fill-opacity:1.0; 
stroke:#009F00; stroke-width:100; stroke-opacity:1; 
stroke-linecap:round; stroke-linejoin:round;">
<circle cx="22500" cy="67500" r="160" /> 
</g>
<g style="fill:#009F00; fill-opacity:1.0; 
stroke:#009F00; stroke-width:60; stroke-opacity:1; 
stroke-linecap:round; stroke-linejoin:round;">
<path d="M42000 60000
L42000 61500
" />
<path d="M42000 65500
L42000 67500
" />
</g>
<g style="fill:#009F00; fill-opacity:1.0; 
stroke:#009F00; stroke-width:0; stroke-opacity:1; 
stroke-linecap:round; stroke-linejoin:round;">
</g>
<g style="fill:#009F00; fill-opacity:1.0; 
stroke:#009F00; stroke-width:100; stroke-opacity:1; 
stroke-linecap:round; stroke-linejoin:round;">
<circle cx="42000" cy="67500" r="160" /> 
</g>
<g style="fill:#009F00; fill-opacity:1.0; 
stroke:#009F00; stroke-width:0; stroke-opacity:1; 
stroke-linecap:round; stroke-linejoin:round;">
</g>
<g style="fill:#009F00; fill-opacity:1.0; 
stroke:#009F00; stroke-width:100; stroke-opacity:1; 
stroke-linecap:round; stroke-linejoin:round;">
<circle cx="22000" cy="16000" r="160" /> 
</g>
<g style="fill:#009F00; fill-opacity:1.0; 
stroke:#009F00; stroke-width:60; stroke-opacity:1; 
stroke-linecap:round; stroke-linejoin:round;">
<path d="M22000 44000
L22000 67500
" />
</g>
<g style="fill:#009F00; fill-opacity:1.0; 
stroke:#009F00; stroke-width:0; stroke-opacity:1; 
stroke-linecap:round; stroke-linejoin:round;">
</g>
<g style="fill:#009F00; fill-opacity:1.0; 
stroke:#009F00; stroke-width:100; stroke-opacity:1; 
stroke-linecap:round; stroke-linejoin:round;">
<circle cx="22000" cy="67500" r="160" /> 
</g>
<g style="fill:#009F00; fill-opacity:1.0; 
stroke:#009F00; stroke-width:60; stroke-opacity:1; 
stroke-linecap:round; stroke-linejoin:round;">
<path d="M28500 48000
L28500 67500
" />
</g>
<g style="fill:#009F00; fill-opacity:1.0; 
stroke:#009F00; stroke-width:0; stroke-opacity:1; 
stroke-linecap:round; stroke-linejoin:round;">
</g>
<g style="fill:#009F00; fill-opacity:1.0; 
stroke:#009F00; stroke-width:100; stroke-opacity:1; 
stroke-linecap:round; stroke-linejoin:round;">
<circle cx="28500" cy="67500" r="160" /> 
</g>
<g style="fill:#009F00; fill-opacity:1.0; 
stroke:#009F00; stroke-width:60; stroke-opacity:1; 
stroke-linecap:round; stroke-linejoin:round;">
<path d="M36500 31500
L36500 37500
" />
<path d="M36500 42500
L36500 43500
" />
</g>
<g style="fill:#009F00; fill-opacity:1.0; 
stroke:#009F00; stroke-width:0; stroke-opacity:1; 
stroke-linecap:round; stroke-linejoin:round;">
</g>
<g style="fill:#009F00; fill-opacity:1.0; 
stroke:#009F00; stroke-width:100; stroke-opacity:1; 
stroke-linecap:round; stroke-linejoin:round;">
<circle cx="17500" cy="16000" r="160" /> 
</g>
<g style="fill:#009F00; fill-opacity:1.0; 
stroke:#009F00; stroke-width:60; stroke-opacity:1; 
stroke-linecap:round; stroke-linejoin:round;">
<path d="M17500 13000
L17500 39000
" />
<path d="M22000 16000
L22000 40000
" />
<path d="M17500 16000
L44000 16000
" />
<path d="M28500 16000
L28500 46000
" />
</g>
<g style="fill:#009F00; fill-opacity:1.0; 
stroke:#009F00; stroke-width:0; stroke-opacity:1; 
stroke-linecap:round; stroke-linejoin:round;">
</g>
<g style="fill:#009F00; fill-opacity:1.0; 
stroke:#009F00; stroke-width:100; stroke-opacity:1; 
stroke-linecap:round; stroke-linejoin:round;">
<circle cx="28500" cy="16000" r="160" /> 
</g>
<g style="fill:#009F00; fill-opacity:1.0; 
stroke:#009F00; stroke-width:60; stroke-opacity:1; 
stroke-linecap:round; stroke-linejoin:round;">
<path d="M36500 16000
L36500 26500
" />
</g>
<g style="fill:#009F00; fill-opacity:1.0; 
stroke:#009F00; stroke-width:0; stroke-opacity:1; 
stroke-linecap:round; stroke-linejoin:round;">
</g>
<g style="fill:#009F00; fill-opacity:1.0; 
stroke:#009F00; stroke-width:100; stroke-opacity:1; 
stroke-linecap:round; stroke-linejoin:round;">
<circle cx="36500" cy="16000" r="160" /> 
</g>
<g style="fill:#009F00; fill-opacity:1.0; 
stroke:#009F00; stroke-width:60; stroke-opacity:1; 
stroke-linecap:round; stroke-linejoin:round;">
<path d="M42000 16000
L42000 31500
" />
</g>
<g style="fill:#009F00; fill-opacity:1.0; 
stroke:#009F00; stroke-width:0; stroke-opacity:1; 
stroke-linecap:round; stroke-linejoin:round;">
</g>
<g style="fill:#009F00; fill-opacity:1.0; 
stroke:#009F00; stroke-width:100; stroke-opacity:1; 
stroke-linecap:round; stroke-linejoin:round;">
<circle cx="42000" cy="16000" r="160" /> 
</g>
<g style="fill:#009F00; fill-opacity:1.0; 
stroke:#009F00; stroke-width:60; stroke-opacity:1; 
stroke-linecap:round; stroke-linejoin:round;">
<path d="M53000 16000
L53000 31500
" />
</g>
<g style="fill:#009F00; fill-opacity:1.0; 
stroke:#009F00; stroke-width:0; stroke-opacity:1; 
stroke-linecap:round; stroke-linejoin:round;">
</g>
<g style="fill:#009F00; fill-opacity:1.0; 
stroke:#009F00; stroke-width:100; stroke-opacity:1; 
stroke-linecap:round; stroke-linejoin:round;">
<circle cx="53000" cy="16000" r="160" /> 
</g>
<g style="fill:#009F00; fill-opacity:1.0; 
stroke:#009F00; stroke-width:60; stroke-opacity:1; 
stroke-linecap:round; stroke-linejoin:round;">
<path d="M67000 16000
L67000 40000
" />
</g>
<g style="fill:#009F00; fill-opacity:1.0; 
stroke:#009F00; stroke-width:0; stroke-opacity:1; 
stroke-linecap:round; stroke-linejoin:round;">
</g>
<g style="fill:#009F00; fill-opacity:1.0; 
stroke:#009F00; stroke-width:100; stroke-opacity:1; 
stroke-linecap:round; stroke-linejoin:round;">
<circle cx="67000" cy="16000" r="160" /> 
</g>
<g style="fill:#009F00; fill-opacity:1.0; 
stroke:#009F00; stroke-width:60; stroke-opacity:1; 
stroke-linecap:round; stroke-linejoin:round;">
<path d="M63000 19500
L63000 22000
" />
<path d="M63000 27000
L63000 29500
" />
<path d="M63000 33500
L63000 36500
" />
<path d="M63000 36500
L58500 36500
" />
<path d="M76500 38000
L76500 16000
" />
</g>
<g style="fill:#009F00; fill-opacity:1.0; 
stroke:#009F00; stroke-width:0; stroke-opacity:1; 
stroke-linecap:round; stroke-linejoin:round;">
</g>
<g style="fill:#009F00; fill-opacity:1.0; 
stroke:#009F00; stroke-width:100; stroke-opacity:1; 
stroke-linecap:round; stroke-linejoin:round;">
<circle cx="76500" cy="16000" r="160" /> 
</g>
<g style="fill:#009F00; fill-opacity:1.0; 
stroke:#009F00; stroke-width:60; stroke-opacity:1; 
stroke-linecap:round; stroke-linejoin:round;">
</g>
<g style="fill:#0000FF; fill-opacity:0.0; 
stroke:#0000FF; stroke-width:60; stroke-opacity:1; 
stroke-linecap:round; stroke-linejoin:round;">
<path d="M83960 15840
L83610 15840
" />
<path d="M83790 15840
L83790 15240
L83730 15330
L83670 15390
L83610 15410
" />
<path d="M84180 15300
L84210 15270
L84270 15240
L84410 15240
L84470 15270
L84500 15300
L84530 15360
L84530 15410
L84500 15500
L84160 15840
L84530 15840
" />
<path d="M84700 15240
L84900 15840
L85100 15240
" />
<path d="M85840 15840
L85780 15810
L85750 15790
L85720 15730
L85720 15560
L85750 15500
L85780 15470
L85840 15440
L85920 15440
L85980 15470
L86010 15500
L86040 15560
L86040 15730
L86010 15790
L85980 15810
L85920 15840
L85840 15840
" />
<path d="M86550 15440
L86550 15840
" />
<path d="M86290 15440
L86290 15760
L86320 15810
L86380 15840
L86460 15840
L86520 15810
L86550 15790
" />
<path d="M86750 15440
L86980 15440
" />
<path d="M86830 15240
L86830 15760
L86860 15810
L86920 15840
L86980 15840
" />
</g> 
</svg>
